<?xml version="1.0" standalone="no"?>
<!DOCTYPE svg PUBLIC "-//W3C//DTD SVG 20010904//EN"
 "http://www.w3.org/TR/2001/REC-SVG-20010904/DTD/svg10.dtd">
<svg version="1.0" xmlns="http://www.w3.org/2000/svg"
 width="141.000000pt" height="141.000000pt" viewBox="0 0 141.000000 141.000000"
 preserveAspectRatio="xMidYMid meet">
<metadata>
Created by potrace 1.14, written by Peter Selinger 2001-2017
</metadata>
<g transform="translate(0.000000,141.000000) scale(0.100000,-0.100000)"
fill="#000000" stroke="none">
<path d="M726 1295 c33 -113 25 -203 -26 -310 -33 -68 -40 -73 -80 -51 l-25
14 38 7 c35 7 57 28 57 54 0 14 -80 14 -138 1 -40 -10 -48 -7 -142 40 -55 27
-102 50 -105 50 -2 0 -11 -13 -20 -30 l-15 -30 77 -38 77 -39 -95 -31 c-108
-36 -193 -57 -262 -67 -44 -6 -48 -9 -43 -28 3 -12 6 -32 6 -44 0 -13 6 -23
14 -23 24 0 208 56 340 104 115 41 131 45 145 31 9 -8 34 -21 54 -30 25 -10
35 -20 31 -28 -4 -7 -26 -39 -48 -72 -22 -33 -50 -85 -63 -115 -37 -89 -29
-230 18 -335 25 -56 124 -225 132 -225 14 0 7 21 -32 98 -57 112 -81 200 -81
291 0 89 10 133 52 219 26 55 33 62 52 56 85 -26 182 -109 221 -188 29 -60 40
-138 51 -363 4 -84 10 -153 15 -153 4 0 9 95 11 211 l3 211 38 33 c47 41 102
55 240 62 l107 6 0 -34 c0 -19 5 -41 10 -49 7 -11 10 -2 10 32 0 51 -23 131
-64 220 l-26 58 39 6 c52 8 101 39 101 63 0 22 -36 71 -53 71 -8 0 -7 -4 1
-12 23 -23 13 -48 -23 -64 -52 -21 -74 -18 -81 12 -11 44 5 135 36 198 16 33
27 62 25 64 -2 2 -19 -18 -39 -45 -47 -65 -70 -141 -62 -204 l7 -49 -107 0
c-87 0 -109 3 -119 16 -10 15 -13 15 -28 0 -13 -14 -28 -16 -79 -11 -35 4 -87
13 -117 21 -60 17 -59 10 -16 113 24 57 27 74 23 150 -3 61 -11 99 -26 131
-12 25 -20 36 -16 25z m20 -477 c68 -19 108 -22 283 -23 l204 -2 43 -94 43
-94 -24 -3 c-31 -4 -280 59 -397 101 -102 37 -248 97 -248 102 0 6 12 35 14
35 2 0 38 -10 82 -22z"/>
</g>
</svg>
